<svg xmlns="http://www.w3.org/2000/svg" width="256" height="256"><path fill-opacity=".016" d="M0 128.004v128.004l128.25-.254 128.25-.254.254-127.75L257.008 0H0v128.004m.485.496c0 70.4.119 99.053.265 63.672.146-35.38.146-92.98 0-128C.604 29.153.485 58.1.485 128.5" fill="#1976D2" fill-rule="evenodd"/><path fill-opacity=".378" d="M144.698 17.383c-8.328 3.105-15.032 9.596-18.869 18.271-1.628 3.68-1.955 6.171-1.667 12.711.44 9.985 2.971 15.695 9.937 22.417 2.69 2.595 4.893 5.246 4.896 5.89.01 2.323-14.179 5.328-25.153 5.328h-6.791l-6.026-5.896C95.936 71.124 95 69.666 95 66.719c0-1.919-.726-5.904-1.613-8.854a889.049 889.049 0 0 1-1.969-6.615c-.453-1.593-4.642-1.626-6.218-.05-.66.66-1.2 2.035-1.2 3.057 0 1.798-.099 1.799-3.151.05-1.733-.994-4.321-3.472-5.75-5.508-3.536-5.035-7.19-6.302-10.551-3.658-7.26 5.71 1.583 21.526 15.789 28.241 6.111 2.888 6.778 3.824 10.783 15.118 1.065 3.003 2.386 4.474 5.298 5.904l3.88 1.903-4.399 2.301c-2.419 1.266-4.047 2.322-3.616 2.347.431.025 2.951-1.053 5.6-2.396l4.817-2.441 9.9 2.191 9.9 2.191.305 4.75.305 4.75h7.278c4.003 0 7.563.284 7.91.631.347.348.182 1.473-.368 2.5-.948 1.77-2.844 1.869-35.965 1.869-33.801 0-34.965.064-34.965 1.918 0 3.829 1.278 4.882 11.057 9.106l9.947 4.298 3.421 10.589c7.037 21.776 11.205 54.92 8.963 71.273l-.612 4.464-7.638 1.312c-10.867 1.866-7.181 2.628 19.362 3.999 19.336.999 22.834.942 28.888-.465 10.376-2.413 11.829-.675 1.612 1.927-8.237 2.097-9.149 2.127-29.5.954-11.55-.665-24.487-1.458-28.75-1.761-6.231-.443-7.75-.278-7.75.845 0 .949 1.685 1.573 5.25 1.946 8.743.915 40.223 2.595 48.624 2.595 7.637 0 21.524-2.405 23.691-4.103.586-.459 5.536-1.357 11-1.997 13.111-1.533 14.435-2.077 14.435-5.925 0-1.691-.764-4.514-1.699-6.275-1.504-2.833-1.669-6.523-1.443-32.2.27-30.707-.974-45.828-4.442-54-2.565-6.042-3.218-9.829-2.437-14.116l.709-3.884 1.15 2.799c4.32 10.515 6.385 13.635 10.968 16.577 2.607 1.672 7.29 5.719 10.407 8.993 10.54 11.07 18.486 14.899 28.361 13.665 6.725-.84 11.426-5.734 11.426-11.896 0-2.826-1.964-4.572-10.842-9.638-3.374-1.925-6.005-3.95-5.846-4.5.158-.55 2.29-2.016 4.738-3.258 5.359-2.718 6.95-4.675 6.95-8.547 0-2.651-.255-2.872-2.75-2.384-5.599 1.095-14.629 4.891-19.601 8.24-2.817 1.897-5.607 3.449-6.199 3.449-2.191 0-6.494-5.821-12.936-17.5-7.199-13.052-11.969-18.34-18.482-20.489-2.273-.75-4.335-1.692-4.582-2.092-.248-.401 1.5-1.872 3.883-3.269 14.681-8.603 21.273-27.719 14.288-41.436-3.823-7.509-8.819-12.623-14.879-15.23-6.518-2.804-15.903-3.518-21.044-1.601M84.98 104.524c-.696.838-1.071 1.718-.835 1.955.237.236.98-.449 1.651-1.524 1.452-2.325.968-2.58-.816-.431m59.83 56.015c-3.323 6.926-4.259 10.185-4.957 17.25-1.178 11.928-.784 37.167.582 37.368 5.423.797 6.478.468 7.659-2.384.667-1.611 2.32-3.654 3.674-4.541l2.461-1.612-.59-15.56c-.325-8.558-1.023-20.51-1.552-26.56l-1.024-11.75c-.225-2.677-2.725.437-6.253 7.789" fill="#1976D2" fill-rule="evenodd"/><path fill-opacity=".18" d="M148.5 16.955c-14.137 2.381-25.279 17.113-24.249 32.061.594 8.635 3.475 14.797 10.225 21.874 4.458 4.673 5.297 6.053 4.224 6.944-2.296 1.905-14.835 4.337-23.227 4.505-7.931.158-8.084.113-12.736-3.698C96.785 73.764 94 69.278 94 64.57c0-4.019-2.698-13.265-4.129-14.15-1.908-1.179-4.871.735-4.871 3.147C85 54.905 84.507 56 83.904 56c-1.494 0-7.191-4.048-8.325-5.916-3.975-6.547-9.565-7.945-12.108-3.028-1.43 2.765-1.434 3.559-.045 8.336 1.196 4.116 2.752 6.432 7.054 10.5 3.035 2.871 7.519 6.105 9.964 7.186 5.423 2.399 7.921 5.428 10.086 12.229 2.189 6.874 4.856 9.121 12.596 10.611 3.506.675 9.411 1.905 13.124 2.735l6.75 1.507V110h7.944c6.874 0 8.262.303 10.299 2.25 1.295 1.237 1.567 1.637.603.888-1.552-1.207-1.824-1.074-2.386 1.164l-.634 2.527-17.119.125c-9.416.069-17.327.332-17.58.585-.253.254 7.265.461 16.706.461 10.628 0 17.167.376 17.167.987 0 .625-12.732 1.083-34.75 1.25l-34.75.263 8.647 4.25c4.756 2.338 9.279 4.25 10.05 4.25.772 0 1.938.535 2.593 1.19.852.852 7.152 1.157 22.2 1.072l21.01-.118v32.091l-7.75-.644c-13.073-1.087-24.441-.733-25.981.807-.254.253.027 5.105.624 10.781 1.82 17.32 2.456 36.991 1.326 41.033-.882 3.158-.789 3.783.622 4.195 3.233.943 29.017 1.841 33.508 1.168 4.152-.623 4.492-.881 3.801-2.879-1.217-3.521-1.365-25.267-.251-36.806.831-8.618 1.677-12.044 4.505-18.249 1.915-4.202 4.165-8.615 5-9.807l1.518-2.168.97 2.55c1.384 3.641 4.417 43.432 3.708 48.648-.384 2.83-1.649 5.567-3.596 7.785-3.543 4.035-4.03 8.731-1.07 10.316 4.602 2.463 24.405.125 27.813-3.283 1.374-1.375 1.34-1.973-.338-5.857-1.687-3.903-1.878-7.395-1.96-35.825-.097-33.685-.863-41.689-5.059-52.869-2.479-6.607-3.04-12.555-1.423-15.112.712-1.125 1.782.375 4.461 6.254 2.9 6.363 4.363 8.311 8.25 10.981 2.598 1.785 8.13 6.643 12.291 10.794 9.429 9.406 15.108 12.343 23.712 12.262 7.388-.069 10.289-1.62 12.757-6.82 2.661-5.609 1.595-7.468-7.402-12.906-4.42-2.672-8.036-5.214-8.036-5.649 0-1.144 5.04-4.935 6.562-4.935 1.768 0 5.438-4.837 5.438-7.166 0-2.84-2.353-3.203-6.653-1.026-2.116 1.071-5.268 2.254-7.004 2.629-1.736.375-5.335 2.229-7.997 4.122-2.662 1.893-5.654 3.441-6.649 3.441-2.897 0-7.307-5.667-13.978-17.961-7.235-13.333-10.599-17.076-17.614-19.598-2.808-1.01-5.105-2.173-5.105-2.585 0-.412 2.434-2.365 5.41-4.34 5.827-3.867 8.94-7.433 12.674-14.516 3.34-6.336 3.439-19.426.196-26-5.932-12.028-19.228-19.159-31.78-17.045M147 117.5c1.292 1.375 2.574 2.5 2.849 2.5.275 0-.557-1.125-1.849-2.5-1.292-1.375-2.574-2.5-2.849-2.5-.275 0 .557 1.125 1.849 2.5m-71.25-.756c4.537.185 11.963.185 16.5 0 4.537-.185.825-.337-8.25-.337s-12.787.152-8.25.337M152.5 122c.995 1.1 2.035 2 2.31 2 .275 0-.315-.9-1.31-2-.995-1.1-2.035-2-2.31-2-.275 0 .315.9 1.31 2m-21.2 93c0 3.025.187 4.262.416 2.75.229-1.512.229-3.988 0-5.5s-.416-.275-.416 2.75m11.2 9.271c-7.734 2.007-8.815 2.036-32.5.854-13.475-.672-26.525-1.483-29-1.802-2.475-.318-4.189-.248-3.809.157.817.87 38.358 3.416 51.309 3.481 8.961.044 22.5-2.421 22.5-4.096 0-.476-.113-.821-.25-.768-.137.054-3.85 1.032-8.25 2.174" fill="#1976D2" fill-rule="evenodd"/><path fill-opacity=".687" d="M149.566 18.107c.461.745-.011.887-1.441.433-2.552-.81-6.384.233-5.588 1.521.312.504-.114.655-.947.335-2.407-.924-12.023 8.864-14.64 14.902-5.186 11.965-2.045 25.784 8.078 35.542 6.064 5.845 6.024 7.491-.225 9.279-2.367.677-4.755 1.566-5.308 1.975-.993.736-8.426 1.147-17.838.988-4.579-.078-5.191-.43-11.25-6.489C94.806 70.991 94 69.713 94 66.43c0-3.014-2.551-13.704-3.652-15.3-.14-.204-1.401-.083-2.801.269-1.828.459-2.547 1.305-2.547 2.995 0 1.836-.543 2.356-2.458 2.356-1.352 0-2.388-.281-2.301-.625C80.465 55.237 69.362 44 68.261 44 66.385 44 63 48.727 63 51.347c0 7.151 7.32 16.07 17.34 21.125 6.826 3.443 7.92 4.793 10.731 13.24 1.178 3.54 2.924 6.75 3.979 7.315 1.035.554 7.409 2.176 14.166 3.606 6.756 1.43 12.703 2.988 13.214 3.463.512.476 1.187 2.786 1.5 5.134l.57 4.27 7.893.295 7.894.294 12.356 10.513c7.96 6.772 12.357 11.204 12.357 12.456 0 1.785-.759 1.942-9.389 1.942-8.257 0-9.372-.207-9.25-1.715.089-1.096-1.668-2.714-4.861-4.477-6.342-3.502-7.255-3.497-6.736.04.314 2.139 1.628 3.572 5.272 5.75 3.717 2.222 4.754 3.37 4.425 4.902-.559 2.6-3.461 24.206-3.461 25.766 0 .658 1.698-2.136 3.774-6.209 4.037-7.922 5.665-9.4 6.714-6.095.906 2.854 2.452 21.709 3.16 38.538l.589 14-3.09 3.211c-3.634 3.776-4.887 7.693-3.136 9.802 1.586 1.911 16.317 2.009 23.489.157 5.801-1.499 6.55-3.252 3.98-9.318-1.395-3.291-1.616-8.115-1.521-33.113.123-31.951-.841-43.134-4.575-53.108-2.419-6.463-3.097-14.456-1.446-17.064.671-1.061 1.952.756 4.934 7 3.317 6.948 4.784 8.906 8.327 11.12 2.366 1.477 6.975 5.453 10.244 8.834 10.631 10.999 17.688 14.548 27.337 13.747 4.704-.39 5.999-.956 8.444-3.692 2.275-2.546 2.823-4.012 2.582-6.904-.287-3.443-.821-3.976-8.543-8.533-9.43-5.566-9.56-6.426-1.603-10.622 3.824-2.016 4.909-3.151 5.168-5.406.471-4.093-.889-4.86-4.866-2.746-1.904 1.013-5.262 2.425-7.462 3.14-2.2.715-6.244 2.806-8.987 4.647-2.742 1.841-5.502 3.348-6.133 3.348-2.287 0-8.13-7.824-13.847-18.545-6.481-12.151-11.517-17.771-17.545-19.577-6.381-1.911-6.787-3.325-1.797-6.251 6.264-3.673 11.315-9.292 14.499-16.127 7.302-15.677-.157-34.415-16.071-40.369-6.112-2.287-15.245-2.952-14.053-1.024M106.75 92.299c-1.513.598-2.75 1.45-2.75 1.894 0 1.076.182 1.047 4.378-.706 5.689-2.378 4.176-3.481-1.628-1.188" fill="#1976D2" fill-rule="evenodd"/></svg>